<svg id="Layer_5" enable-background="new 0 0 64 64" height="512" viewBox="0 0 64 64" width="512" xmlns="http://www.w3.org/2000/svg" xmlns:xlink="http://www.w3.org/1999/xlink"><linearGradient id="SVGID_1_" gradientUnits="userSpaceOnUse" x1="32" x2="32" y1="63" y2="1"><stop offset="0" stop-color="#9f2fff"/><stop offset="1" stop-color="#0bb1d3"/></linearGradient><path d="m63 43h-2v-30h2v-12h-35.618l-5 10h8.618v20h-8v-14h-2v-4h-6v-4h-2v4h-2v-6h-2v6h-6v4h-2v46h62zm-4-2.414-7.586-7.586 7.586-7.586zm-8-10v-15.172l7.586 7.586zm0 4.828 7.586 7.586h-7.586zm0 9.586v4h-8v-4zm-13 10v-4h8v4zm3-6h-8v-4h8zm-10 0h-8v-4h8zm-8 2h3v4h-3zm5 0h8v4h-8zm13 6v4h-8v-4zm2 0h8v4h-8zm5-2v-4h8v4zm10-4h3v4h-3zm-5-2v-4h8v4zm6-28.414-7.586-7.586h7.586zm-10-17.586h12v8h-12zm-13 1.236 2.382 4.764h-4.764zm-4 3.528-2.382-4.764h4.764zm5.618-4.764h4.764l-2.382 4.764zm7 0h2.382v6h-5.382zm-16.618 1.236 2.382 4.764h-4.764zm5 6.764h14v2h2v30h-26v-4h20v-8h-10zm8 22v4h-18v-4zm-36-18h14v2h-14zm16 4v2h-18v-2zm-18 42v-38h18v38zm20-4h8v4h-8zm30 4v-4h8v4zm-2-56h2v4h-2zm6 0h2v4h-2zm-52 20h2v2h-2zm4 0h2v2h-2zm8 0h2v2h-2zm-4 0h2v2h-2zm-4 4h2v2h-2zm4 0h2v2h-2zm4 0h2v2h-2zm-12 0h2v2h-2zm4 4h2v2h-2zm8 0h2v2h-2zm-4 0h2v2h-2zm-8 0h2v2h-2zm12 4h2v2h-2zm-4 0h2v2h-2zm-8 0h2v2h-2zm4 0h2v2h-2zm-4 4h2v2h-2zm8 0h2v2h-2zm-4 0h2v2h-2zm8 0h2v2h-2zm0 4h2v2h-2zm-4 0h2v2h-2zm-8 0h2v2h-2zm4 0h2v2h-2zm-4 4h2v2h-2zm8 0h2v2h-2zm4 0h2v2h-2zm-8 0h2v2h-2zm8 4h2v2h-2zm-4 0h2v2h-2zm-8 0h2v2h-2zm4 0h2v2h-2zm8 4h2v2h-2zm-8 0h2v2h-2zm4 0h2v2h-2zm-8 0h2v2h-2z" fill="url(#SVGID_1_)"/></svg>