<?xml version="1.0"?>
<svg xmlns="http://www.w3.org/2000/svg" viewBox="0 0 64 64" width="512" height="512"><g id="flat"><path d="M53,35V29H49a18.58,18.58,0,0,0-3-7l3-3-4-4-3,3a18.58,18.58,0,0,0-7-3V11H29v4a18.58,18.58,0,0,0-7,3l-3-3-4,4,3,3a18.58,18.58,0,0,0-3,7H11v6h4a18.58,18.58,0,0,0,3,7l-3,3,4,4,3-3a18.58,18.58,0,0,0,7,3v4h6V49a18.58,18.58,0,0,0,7-3l3,3,4-4-3-3a18.58,18.58,0,0,0,3-7Z" style="fill:#bfbfbf"/><circle cx="32" cy="32" r="12" style="fill:#6b809b"/><circle cx="32" cy="32" r="8" style="fill:#fcf05a"/><path d="M32,58A26.029,26.029,0,0,1,6,32H8A24,24,0,1,0,32,8V6a26,26,0,0,1,0,52Z" style="fill:#418abd"/><path d="M4,32H2A30.034,30.034,0,0,1,32,2V4A28.032,28.032,0,0,0,4,32Z" style="fill:#418abd"/><path d="M32,62V60A28.032,28.032,0,0,0,60,32h2A30.034,30.034,0,0,1,32,62Z" style="fill:#418abd"/></g></svg>
