<svg id="SvgjsSvg1001" width="288" height="288" xmlns="http://www.w3.org/2000/svg" version="1.1" xmlns:xlink="http://www.w3.org/1999/xlink" xmlns:svgjs="http://svgjs.com/svgjs"><defs id="SvgjsDefs1002"></defs><g id="SvgjsG1008" transform="matrix(1,0,0,1,0,0)"><svg xmlns="http://www.w3.org/2000/svg" width="288" height="288" viewBox="0 0 464 464"><path d="M397.128906 162.519531l-10.433594-1.894531-22.71875 22.710938 23.289063 18.632812zm0 0M306.871094 162.519531l9.863281 39.449219 23.289063-18.632812-22.71875-22.710938zm0 0M0 440c0 13.230469 10.769531 24 24 24h40v-48h-40c-13.230469 0-24 10.769531-24 24zm0 0M98.832031 98.886719c1.152344 3.707031 2.6875 7.394531 4.574219 10.953125l2.066406 3.886718-8.136718 14.273438h125.328124l-8.144531-14.265625 2.066407-3.886719c1.886718-3.558594 3.429687-7.246094 4.574218-10.953125l1.289063-4.199219 17.542969-4.800781v-19.789062l-17.542969-4.800781-1.289063-4.199219c-1.152344-3.707031-2.6875-7.394531-4.574218-10.953125l-2.066407-3.886719 9.039063-15.832031-13.992188-14-15.832031 9.03125-3.878906-2.050782c-3.597657-1.902343-7.296875-3.4375-10.96875-4.574218l-4.191407-1.296875-4.808593-17.542969h-19.78125l-4.808594 17.542969-4.191406 1.296875c-3.671875 1.136718-7.371094 2.671875-10.96875 4.574218l-3.878907 2.050782-15.832031-9.03125-13.992187 14 9.039062 15.832031-2.058594 3.894531c-1.886718 3.558594-3.429687 7.246094-4.574218 10.953125l-1.289063 4.199219-17.550781 4.792969v19.789062l17.542969 4.800781zm61.167969-50.886719c17.648438 0 32 14.351562 32 32s-14.351562 32-32 32-32-14.351562-32-32 14.351562-32 32-32zm0 0M376 148.6875v-9.398438c-7.414062 3.015626-15.511719 4.710938-24 4.710938s-16.585938-1.695312-24-4.710938v9.398438l24 24zm0 0M360.9375 48l5.910156-47.304688c-2.230468-.390624-4.503906-.695312-6.847656-.695312h-16c-2.34375 0-4.617188.304688-6.847656.695312l5.910156 47.304688zm0 0M321.785156 6.769531c-10.714844 7.183594-17.785156 19.390625-17.785156 33.230469v8h22.9375zm0 0M352 128c26.472656 0 48-21.527344 48-48v-16h-96v16c0 26.472656 21.527344 48 48 48zm0 0M400 40c0-13.839844-7.070312-26.046875-17.785156-33.230469l-5.152344 41.230469h22.9375zm0 0M440 368h-40v48h40c13.230469 0 24-10.769531 24-24s-10.769531-24-24-24zm0 0M208 368h176v48h-176zm0 0" fill="#ffffff" class="color000 svgShape"></path><path d="M444.296875 171.097656l-31.402344-5.714844-16.160156 64.648438-44.734375-35.785156-44.734375 35.792968-16.160156-64.648437-31.402344 5.714844c-11.414063 2.0625-19.703125 12-19.703125 23.597656v109.296875h32v-80h16v80h128v-80h16v80h32v-109.296875c0-11.597656-8.289062-21.535156-19.703125-23.605469zm0 0M192 411.054688v-38.109376l-38.113281 19.054688zm0 0" fill="#ffffff" class="color000 svgShape"></path><path d="m400 320h-176v-125.296875c0-19.34375 13.816406-35.894531 32.839844-39.351563l55.160156-10.023437v-1.328125h-288c-13.230469 0-24 10.769531-24 24v240.207031c6.703125-5.078125 14.960938-8.207031 24-8.207031h110.113281l-16-8 80-40h201.886719zm-288 64h-96v-16h96zm39.726562-67.585938 35.585938 35.585938h-171.3125v-171.3125l35.585938 35.585938c10.125-32.960938 40.613281-56.273438 76.414062-56.273438 44.113281 0 80 35.886719 80 80 0 35.753906-23.320312 66.28125-56.273438 76.414062zm0 0" fill="#ffffff" class="color000 svgShape"></path><path d="M32 336h116.6875l-116.6875-116.6875zm0 0M128 176c-31.65625 0-58.089844 22.792969-63.089844 53.601562l73.496094 73.496094c30.792969-5.019531 53.59375-31.472656 53.59375-63.097656 0-35.289062-28.710938-64-64-64zm0 0" fill="#ffffff" class="color000 svgShape"></path></svg></g></svg>