<?xml version="1.0" encoding="UTF-8"?>
<svg xmlns="http://www.w3.org/2000/svg" xmlns:xlink="http://www.w3.org/1999/xlink" width="144pt" height="144pt" viewBox="0 0 144 144" version="1.1">
<g id="surface1">
<path style=" stroke:none;fill-rule:nonzero;fill:rgb(36.078431%,20.392157%,50.980392%);fill-opacity:1;" d="M 29.570312 101.585938 C 29.570312 118.125 15.355469 131.550781 0 131.550781 L 0 71.605469 C 15.355469 71.605469 29.570312 85.042969 29.570312 101.585938 Z M 29.570312 41.640625 C 29.570312 58.179688 15.355469 71.605469 0 71.605469 L 0 11.675781 C 15.355469 11.675781 29.570312 25.101562 29.570312 41.640625 Z M 29.570312 41.640625 "/>
<path style=" stroke:none;fill-rule:nonzero;fill:rgb(19.607843%,61.960784%,74.901961%);fill-opacity:1;" d="M 71.800781 101.585938 C 71.800781 118.125 57.601562 131.550781 42.234375 131.550781 L 42.234375 71.605469 C 57.601562 71.605469 71.800781 85.042969 71.800781 101.585938 Z M 71.800781 41.640625 C 71.800781 58.179688 57.601562 71.605469 42.234375 71.605469 L 42.234375 11.675781 C 57.601562 11.675781 71.800781 25.101562 71.800781 41.640625 Z M 71.800781 41.640625 "/>
<path style=" stroke:none;fill-rule:nonzero;fill:rgb(36.078431%,20.392157%,50.980392%);fill-opacity:1;" d="M 143.621094 71.605469 C 143.621094 104.6875 117.121094 131.550781 84.480469 131.550781 L 84.480469 11.675781 C 117.121094 11.675781 143.621094 38.523438 143.621094 71.605469 Z M 143.621094 71.605469 "/>
</g>
</svg>
